<svg xmlns="http://www.w3.org/2000/svg" viewBox="0 0 262.0 114.0"><path d="M27.0 0.5L30.5 0.0L32.0 5.5L24.0 10.5L25.5 15.0L32.5 11.0L44.0 9.5L36.5 13.0L32.5 13.0L28.5 16.0L24.5 17.0L23.0 13.5L23.0 9.5L30.0 4.5L29.5 2.0L26.5 2.0L20.0 4.5L22.0 10.5L19.5 13.0L8.5 18.0L5.0 21.5L0.5 32.0L0.0 28.5L4.0 19.5L19.5 11.0L19.0 3.5L27.0 0.5ZM71.0 11.5L93.5 22.0L95.5 20.0L98.5 20.0L127.5 35.0L151.5 45.0L155.5 44.0L167.5 51.0L173.5 51.0L189.5 72.0L211.5 84.0L222.5 80.0L230.5 72.0L235.5 70.0L240.5 71.0L262.0 95.5L254.0 97.5L253.0 109.5L248.5 114.0L241.5 113.0L230.5 104.0L205.5 100.0L194.5 92.0L184.0 81.5L177.0 69.5L157.5 55.0L153.5 49.0L152.0 56.5L148.5 58.0L144.0 49.5L140.5 47.0L126.5 39.0L110.5 35.0L90.5 25.0L66.5 26.0L61.0 29.5L60.5 33.0L59.5 31.0L58.0 31.5L40.0 52.5L29.5 68.0L23.5 71.0L16.5 67.0L13.0 59.5L21.0 39.5L11.5 38.0L1.5 49.0L0.0 48.5L10.5 37.0L16.5 36.0L23.0 38.5L15.0 60.5L19.5 67.0L24.5 69.0L31.0 63.5L42.0 47.5L61.0 26.5L61.5 23.0L62.5 26.0L67.5 24.0L92.5 24.0L109.5 33.0L120.5 35.0L133.0 40.5L143.5 46.0L148.5 56.0L151.0 54.5L151.0 49.5L155.5 48.0L158.5 54.0L178.0 68.5L187.0 82.5L195.5 91.0L199.5 92.0L208.5 100.0L230.5 102.0L239.5 110.0L248.5 112.0L252.0 108.5L252.0 96.5L259.5 96.0L260.0 94.5L240.5 73.0L232.5 73.0L223.5 81.0L209.5 85.0L188.5 73.0L173.5 53.0L163.5 51.0L155.5 46.0L149.5 46.0L123.5 35.0L96.5 21.0L92.5 23.0L71.0 11.5Z" fill="rgba(94,58,20,0.16)" fill-rule="evenodd"></path></svg>
