<svg xmlns="http://www.w3.org/2000/svg" viewBox="0 0 270.0 240.0"><path d="M208.0 0.5L212.5 0.0L216.0 3.5L222.0 13.5L223.0 18.5L229.0 23.5L232.5 30.0L239.5 31.0L243.5 36.0L249.5 39.0L254.5 35.0L256.0 36.5L254.5 45.0L247.5 44.0L245.5 46.0L239.5 46.0L235.5 51.0L230.5 46.0L223.0 49.5L223.0 51.5L228.0 55.5L227.0 59.5L231.5 64.0L244.5 69.0L247.0 71.5L244.5 72.0L230.5 66.0L225.0 60.5L226.0 56.5L220.0 51.5L223.5 46.0L231.5 44.0L235.5 48.0L238.5 44.0L241.5 43.0L252.5 43.0L253.5 39.0L249.5 41.0L242.5 38.0L237.5 33.0L231.5 32.0L228.0 28.5L227.0 24.5L221.0 20.5L219.0 12.5L215.0 5.5L210.5 2.0L197.5 5.0L187.0 16.5L186.0 32.5L182.0 36.5L183.0 43.5L184.5 45.0L188.5 44.0L192.0 47.5L192.0 50.5L197.0 52.5L197.0 57.5L199.0 60.5L210.0 70.5L209.0 80.5L228.0 100.5L227.5 103.0L207.5 112.0L204.5 115.0L202.0 113.5L202.0 103.5L197.5 102.0L193.0 107.5L192.5 114.0L169.5 114.0L163.5 118.0L150.5 118.0L134.5 115.0L133.5 125.0L108.5 125.0L103.0 122.5L103.0 117.5L97.0 112.5L96.5 108.0L89.5 109.0L79.5 104.0L73.5 104.0L64.5 101.0L56.5 99.0L45.5 99.0L39.5 96.0L30.5 96.0L27.5 98.0L13.0 111.5L14.0 116.5L3.0 126.5L2.0 135.5L6.0 139.5L5.0 141.5L12.0 148.5L13.0 153.5L25.5 167.0L58.5 150.0L78.5 150.0L80.5 138.0L82.0 139.5L82.5 150.0L102.5 151.0L107.0 167.5L105.0 172.5L101.0 176.5L109.5 183.0L115.0 184.5L115.0 214.5L135.5 227.0L146.5 227.0L158.5 235.0L204.5 235.0L253.5 238.0L255.0 205.5L251.0 200.5L251.0 193.5L257.5 186.0L264.5 187.0L269.0 191.5L270.0 193.5L268.5 194.0L264.5 189.0L257.5 189.0L253.0 193.5L253.0 199.5L257.0 205.5L257.0 231.5L255.5 240.0L200.5 237.0L158.5 237.0L144.5 229.0L134.5 229.0L112.0 214.5L113.0 186.5L108.5 185.0L98.0 176.5L105.0 167.5L100.5 153.0L59.5 152.0L24.5 169.0L11.0 154.5L10.0 149.5L3.0 142.5L3.0 139.5L0.0 136.5L0.0 128.5L1.0 125.5L11.0 116.5L11.0 110.5L18.0 104.5L19.5 101.0L30.5 94.0L40.5 94.0L46.5 97.0L67.5 99.0L73.5 102.0L80.5 102.0L89.5 107.0L98.5 106.0L99.0 111.5L105.0 116.5L105.0 121.5L108.5 123.0L131.5 123.0L132.0 114.5L133.5 113.0L151.5 116.0L162.5 116.0L169.5 112.0L190.5 112.0L191.0 106.5L196.5 99.0L204.0 101.5L204.5 112.0L224.5 102.0L225.0 100.5L209.0 84.5L207.0 80.5L208.0 71.5L197.0 61.5L195.0 58.5L195.0 53.5L190.0 51.5L189.0 46.5L184.5 47.0L182.0 45.5L180.0 39.5L180.0 34.5L184.0 31.5L184.0 15.5L187.5 14.0L191.0 10.5L191.0 7.5L196.5 3.0L208.0 0.5Z" fill="rgba(94,58,20,0.16)" fill-rule="evenodd"></path></svg>
